<?xml version="1.0" standalone="no"?><!DOCTYPE svg PUBLIC "-//W3C//DTD SVG 1.1//EN" "http://www.w3.org/Graphics/SVG/1.1/DTD/svg11.dtd"><svg t="1618782074160" class="icon" viewBox="0 0 1024 1024" version="1.1" xmlns="http://www.w3.org/2000/svg" p-id="6674" xmlns:xlink="http://www.w3.org/1999/xlink" width="200" height="200"><defs><style type="text/css"></style></defs><path d="M697.109155 428.615805L544.68107 216.004656a40.4022 40.4022 0 0 0-32.791742-16.845906 40.272055 40.272055 0 0 0-18.427111 4.463861c-5.704498 2.931309-10.630557 7.176234-14.364632 12.382045l-152.476736 212.611149L149.744915 370.500469c-6.811341-2.238012-14.109207-2.615068-21.115158-1.09468a40.430175 40.430175 0 0 0-18.77984 9.730488 40.359629 40.359629 0 0 0-11.956337 39.031417l93.230232 395.106439c0.851418 3.332692 2.797515 6.276164 5.522052 8.356056 2.724536 2.092055 6.081555 3.186735 9.511551 3.138082h611.877371c3.417834 0 6.726199-1.131169 9.438573-3.21106 2.712373-2.079892 4.658471-4.986875 5.546378-8.283078l92.938317-395.191581a40.353547 40.353547 0 0 0-0.717623-21.102994c-2.104218-6.84783-6.008576-13.002364-11.287366-17.855444s-11.749563-8.197936-18.755514-9.706162a40.336519 40.336519 0 0 0-21.090831 1.09468L697.145644 428.627968h-0.036489z" fill="#FEC675" p-id="6675"></path><path d="M697.340254 428.615805L538.842778 207.526969a14.671142 14.671142 0 0 0-7.310029-5.363931c-2.943472-0.973049-6.118044-0.973049-9.073679-0.012163a14.547079 14.547079 0 0 0-7.334355 5.339605 14.674791 14.674791 0 0 0-2.773189 8.635807l3.065104 608.727126h302.78844c3.417834-0.012163 6.726199-1.143332 9.438573-3.223224 2.712373-2.079892 4.658471-4.986875 5.546377-8.283077l92.938318-395.179418a40.393686 40.393686 0 0 0-0.717624-21.115157 40.375441 40.375441 0 0 0-11.287365-17.855445 40.308544 40.308544 0 0 0-18.755514-9.706161 40.336519 40.336519 0 0 0-21.090832 1.09468l-176.961075 58.115336v-0.085142z" fill="#FFDBA5" p-id="6676"></path><path d="M666.299999 527.757308L534.123491 709.912031a24.155935 24.155935 0 0 1-9.487225 8.514177 24.05863 24.05863 0 0 1-12.503676 2.481274h-64.294195l-55.086722-187.628122c-1.240637-3.162408-3.223224-5.972087-5.777477-8.197936s-5.619356-3.79489-8.915559-4.585492l-22.003064-7.261376h102.778273l42.218152 138.318877 91.782822-116.230671c0.717623-1.496062 1.082517-3.138082 1.082516-4.804428 0-1.654183-0.364893-3.296203-1.082516-4.792265-0.74195-1.581204-1.787977-2.992125-3.077267-4.171947a13.257789 13.257789 0 0 0-4.439535-2.675884l-16.602644-5.485562h86.26077c1.99475-0.304078 4.025989-0.072979 5.911272 0.644645 1.873119 0.729787 3.539465 1.933934 4.804428 3.502975a8.789063 8.789063 0 0 1 1.95826 5.011201c0.097305 1.836629-0.364893 3.648933-1.350105 5.205811z" fill="#A97539" p-id="6677"></path></svg>