<?xml version="1.0" standalone="no"?><!DOCTYPE svg PUBLIC "-//W3C//DTD SVG 1.1//EN" "http://www.w3.org/Graphics/SVG/1.1/DTD/svg11.dtd"><svg t="1617695689896" class="icon" viewBox="0 0 1151 1024" version="1.1" xmlns="http://www.w3.org/2000/svg" p-id="11083" xmlns:xlink="http://www.w3.org/1999/xlink" width="224.8046875" height="200"><defs><style type="text/css"></style></defs><path d="M1059.482816 182.219105a85.608734 85.608734 0 0 0-73.003865 48.883857 79.530244 79.530244 0 0 0 11.38917 84.648973l-8.957774 35.957068A169.872802 169.872802 0 0 1 809.759849 477.115851a167.18547 167.18547 0 0 1-156.821044-150.294666L644.429918 224.448615a118.239628 118.239628 0 0 0 51.185285-135.322385 127.260387 127.260387 0 0 0-240.700208 0 118.239628 118.239628 0 0 0 51.185286 135.322385l-8.893791 102.37157a167.18547 167.18547 0 0 1-156.565108 150.67857 169.872802 169.872802 0 0 1-179.150498-125.405848l-8.957774-35.958067a79.530244 79.530244 0 0 0 5.118728-95.526271 87.272321 87.272321 0 0 0-92.39005-35.509179A83.177338 83.177338 0 0 0 0.383905 257.655366a81.769688 81.769688 0 0 0 50.546443 82.409529l76.777928 517.744388h895.177631l76.394023-517.873356a81.385783 81.385783 0 0 0 50.034571-95.141366 85.352798 85.352798 0 0 0-89.575749-62.574456z" fill="#F9C85D" p-id="11084"></path><path d="M887.818459 1023.971007H257.976916a130.075688 130.075688 0 0 1-132.76402-127.388355h895.368583a130.139672 130.139672 0 0 1-132.76302 127.388355z" fill="#F57423" p-id="11085"></path><path d="M0.575857 264.308714a84.393036 84.393036 0 0 0 86.056623 82.601481 82.665465 82.665465 0 1 0 0-165.201963A84.393036 84.393036 0 0 0 0.575857 264.308714z" fill="#F9C85D" p-id="11086"></path><path d="M1059.418832 182.284089a85.608734 85.608734 0 0 0-73.003866 48.882857 79.530244 79.530244 0 0 0 11.645108 84.648973l-8.957775 35.957068a169.872802 169.872802 0 0 1-179.150498 125.405848 167.18547 167.18547 0 0 1-156.821044-150.294666l-8.508886-102.37157a118.687517 118.687517 0 0 0 54.448474-122.718515 123.10242 123.10242 0 0 0-96.613-95.97316 133.658798 133.658798 0 0 0-27.25623-2.559364v854.675691h447.875744l76.395023-517.681403a81.64172 81.64172 0 0 0 48.626921-94.88543 85.608734 85.608734 0 0 0-88.552003-62.894377z" fill="#FFB103" p-id="11087"></path><path d="M978.928826 264.308714a85.992639 85.992639 0 1 0 85.928655-82.472514 84.201084 84.201084 0 0 0-85.928655 82.473513zM448.388617 122.268997a127.196403 127.196403 0 0 0 254.200854 0 127.196403 127.196403 0 0 0-254.201854 0z" fill="#F9C85D" p-id="11088"></path><path d="M572.961672 896.581652v127.389355h318.055992a127.004451 127.004451 0 0 0 129.563815-124.381103v-3.007252z" fill="#F57423" p-id="11089"></path><path d="M148.823031 207.364859A183.373449 183.373449 0 0 1 33.334719 328.61274a87.080369 87.080369 0 0 0 53.489713 18.23547 85.864671 85.864671 0 0 0 79.530244-49.842619 79.722196 79.722196 0 0 0-17.339693-89.575748z m978.544922 0.639841a187.660384 187.660384 0 0 1-117.726756 118.750501 88.232082 88.232082 0 0 0 116.383089-6.845299 79.78618 79.78618 0 0 0 1.279682-111.841218zM664.264991 34.676756a67.117328 67.117328 0 0 1 4.158967 22.90531c0 57.584695-74.603468 104.035157-166.353676 104.035157a254.265838 254.265838 0 0 1-47.858112-4.478887 126.172658 126.172658 0 0 0 113.439821 87.016384 127.964213 127.964213 0 0 0 124.318118-72.364024 118.430581 118.430581 0 0 0-27.769102-137.049956z" fill="#FFB103" p-id="11090"></path><path d="M43.31624 228.479614c2.687332 4.478887 13.883551 3.134221 24.953801-3.007253s17.850566-14.716344 15.226218-19.195232-13.883551-3.135221-24.952802 3.007253-17.978534 14.65236-15.227217 19.195232zM1078.933984 225.728297c11.068251 6.398411 22.265469 7.485141 24.952801 3.007253s-4.094983-12.796821-15.228217-19.195232-22.265469-7.48614-24.952801-3.007253 3.839046 12.796821 15.228217 19.195232zM525.10256 36.980184c0 6.398411 21.434675 11.83706 48.178032 11.837059s48.180032-5.118728 48.180032-11.837059-21.434675-11.83706-48.179032-11.83706-48.178032 4.862792-48.178032 11.83706z" fill="#F7EAD0" p-id="11091"></path><path d="M613.9105 654.665746h-71.532231a28.279975 28.279975 0 1 1 0-56.495966h71.532231a28.279975 28.279975 0 1 1 0 56.495966z" fill="#DA3329" p-id="11092"></path><path d="M613.974484 598.040812h-38.390464v56.495966h38.390464a28.279975 28.279975 0 0 0 0-56.495966z" fill="#C11B16" p-id="11093"></path></svg>